<svg xmlns="http://www.w3.org/2000/svg" xml:space="preserve" style="enable-background:new 0 0 225.9 171.1" viewBox="0 0 225.9 171.1"><path d="M41.3 65.3C41.3 74.8 46.4 80 55 80c24.9 0 43.8 18.9 43.8 44.7 0 28.4-22.4 46.4-48.1 46.4C15.5 171.1 0 141 0 107.5 0 67.1 24.1 24.1 61 0l11.2 12C55 26.7 41.3 51.6 41.3 65.3M188.1 0l11.2 12c-17.2 14.6-30.9 39.5-30.9 53.3 0 9.5 5.2 14.6 13.8 14.6 24.9 0 43.8 18.9 43.8 44.7 0 28.4-22.4 46.4-48.1 46.4-35.2 0-50.7-30.1-50.7-63.6-.1-40.3 23.9-83.3 60.9-107.4" style="fill:#141414"/></svg>
